<?xml version="1.0" encoding="UTF-8"?>
<svg width="148px" height="31px" viewBox="0 0 148 31" version="1.1" xmlns="http://www.w3.org/2000/svg" xmlns:xlink="http://www.w3.org/1999/xlink">
    <!-- Generator: Sketch 58 (84663) - https://sketch.com -->
    <title>Logo / 58px + Text</title>
    <desc>Created with Sketch.</desc>
    <defs>
        <rect id="path-1" x="0" y="0" width="213" height="58"></rect>
    </defs>
    <g id="Verticurl-UI" stroke="none" stroke-width="1" fill="none" fill-rule="evenodd">
        <g id="d.Homepage" transform="translate(-165.000000, -3609.000000)">
            <g id="00---Footer" transform="translate(0.000000, 3526.000000)">
                <g id="Footer">
                    <g id="Footer-11">
                        <g id="Logo-/-58px-+-Text" transform="translate(165.000000, 70.000000)">
                            <g id="Logo">
                                <mask id="mask-2" fill="white">
                                    <use xlink:href="#path-1"></use>
                                </mask>
                                <g id="mask"></g>
                            </g>
                            <g id="Logo-Vector" transform="translate(0.000000, 13.000000)">
                                <g id="Group">
                                    <path d="M41.4352084,17.2039667 C41.1156366,15.0783617 40.4032658,13.504442 39.2980961,12.4554173 C38.1931196,11.4150037 36.8323311,10.8904914 35.2068428,10.8904914 C34.4214381,10.8904914 33.6907123,11.0261642 33.0148585,11.2793309 C32.3299238,11.5324975 31.7182162,11.9217198 31.1791561,12.4462321 C30.6312084,12.9617506 30.1744564,13.6219358 29.8002057,14.4179852 C29.4257619,15.2140346 29.1608689,16.1457568 28.9966392,17.2039667 L41.4352084,17.2039667 Z M35.6359655,30.825979 C34.0102841,30.825979 32.5308637,30.5634358 31.2065922,30.0389235 C29.8732397,29.5234049 28.7406339,28.772516 27.7908063,27.7866395 C26.8502527,26.8097568 26.1197201,25.6066889 25.5990151,24.186621 C25.0785034,22.7575593 24.8228846,21.1474728 24.8228846,19.3475593 C24.8228846,17.5476457 25.0785034,15.9375593 25.5899342,14.5084975 C26.0920909,13.0882383 26.8044616,11.8853617 27.7086914,10.908479 C28.6221953,9.9315963 29.7178977,9.18089877 30.9874903,8.65638642 C32.2659708,8.13168272 33.6723572,7.86933086 35.2068428,7.86933086 C36.7776522,7.86933086 38.1931196,8.13168272 39.4717932,8.63820741 C40.7502736,9.15372593 41.8370883,9.90442346 42.750399,10.8813062 C43.6637097,11.8581889 44.3577253,13.0612568 44.8509943,14.4813247 C45.34407,15.9103864 45.5906078,17.5294667 45.5906078,19.3475593 L45.5906078,20.2790901 L28.9141379,20.2790901 C29.0055269,21.5636765 29.2339029,22.6762321 29.6083467,23.6169481 C29.9829838,24.548479 30.4760595,25.3263494 31.0696052,25.9323802 C31.6724251,26.5384111 32.3573598,26.9997753 33.1336836,27.2982938 C33.9100073,27.5968123 34.7410099,27.7504728 35.6359655,27.7504728 C36.3118193,27.7504728 36.969318,27.6601519 37.6084616,27.4791272 C38.2570726,27.3072877 38.8324564,27.054121 39.3348063,26.710442 C39.8462371,26.3757568 40.2662789,25.9597444 40.5858507,25.4530284 C40.9056157,24.9556889 41.0791196,24.3856333 41.1156366,23.7434358 L45.1887279,23.7434358 C45.0244982,24.8741704 44.6682162,25.8872198 44.1293493,26.7645963 C43.5814016,27.6509667 42.8873859,28.3928617 42.0380282,28.9897074 C41.1977514,29.5957383 40.2297619,30.0479173 39.1336731,30.355621 C38.0470517,30.6719358 36.8781222,30.825979 35.6359655,30.825979 L35.6359655,30.825979 Z" id="Fill-1" fill="#88CC44"></path>
                                    <polygon id="Fill-4" fill="#88CC44" points="76.7495927 4.21504321 80.7133264 4.21504321 80.7133264 1.42108547e-14 76.7495927 1.42108547e-14"></polygon>
                                    <polygon id="Fill-6" fill="#88CC44" points="76.7495927 30.2921667 80.7133264 30.2921667 80.7133264 8.34875926 76.7495927 8.34875926"></polygon>
                                    <path d="M73.0880225,30.3463784 C72.229777,30.5002302 71.2890303,30.5815574 70.2480068,30.5815574 C68.9693332,30.5815574 67.9737144,30.4187117 67.2796987,30.0842179 C66.5854898,29.7403475 66.0649781,29.2791747 65.7272444,28.6913228 C65.3891243,28.0940944 65.1883775,27.3885574 65.1244245,26.5655265 C65.0604715,25.7514895 65.0330355,24.8379463 65.0330355,23.8520698 L65.0330355,11.4241315 L62.3023775,11.4241315 L62.3023775,8.34862531 L65.0330355,8.34862531 L65.0330355,2.92171173 L68.9693332,2.92171173 L68.9693332,8.34862531 L72.5491556,8.34862531 L72.5491556,11.4241315 L68.9693332,11.4241315 L68.9693332,24.0690698 C68.9693332,24.8379463 69.0149311,25.4621562 69.115401,25.923329 C69.2067901,26.3756994 69.352858,26.7283722 69.5445238,26.9635512 C69.7271086,27.2077241 69.9556778,27.3615759 70.2203775,27.4339093 C70.4943514,27.4972488 70.7866804,27.5334154 71.1064454,27.5334154 C71.7822992,27.5334154 72.4397979,27.4792611 73.0880225,27.3797549 L73.0880225,30.3463784 Z" id="Fill-7" fill="#88CC44"></path>
                                    <path d="M60.2389948,11.6228951 C58.5317781,11.0402099 56.758483,11.410679 55.3555744,12.4685062 C53.952859,13.5263333 52.92053,15.2715185 52.6954386,17.4384568 L52.6954386,23.865216 L52.6954386,30.2921667 L50.7134752,30.2921667 L48.731705,30.2921667 L48.731705,19.320463 L48.731705,8.34875926 L50.7134752,8.34875926 L52.6954386,8.34875926 L52.6954386,9.80939506 L52.6954386,11.2702222 C53.5082794,10.0853333 54.3939608,9.35032716 55.3528695,8.91173457 C56.3117781,8.47314198 57.344107,8.3307716 58.4490836,8.3307716 C58.7230574,8.3307716 59.0109426,8.34435802 59.3096475,8.37153086 C59.6087389,8.39851235 59.919423,8.43946296 60.2389948,8.49361728 L60.2389948,10.0581605 L60.2389948,11.6228951 Z" id="Fill-8" fill="#88CC44"></path>
                                    <polygon id="Fill-9" fill="#88CC44" points="27.9917269 5.74074075e-05 16.0827504 30.2922241 11.9089958 30.2922241 1.93211487e-05 5.74074075e-05 4.33800366 5.74074075e-05 14.000317 25.9684895 23.6537426 5.74074075e-05"></polygon>
                                    <polygon id="Fill-10" fill="#222222" points="143.911838 30.2921667 147.875379 30.2921667 147.875379 -2.7000624e-13 143.911838 -2.7000624e-13"></polygon>
                                    <path d="M120.988145,27.5062809 C119.006375,29.7223981 116.796422,30.8259599 114.348819,30.8259599 C109.353143,30.8259599 106.859942,28.1213056 106.859942,22.7123796 L106.859942,8.34866358 L110.814401,8.34866358 L110.814401,22.5587191 C110.814401,24.3404537 111.133973,25.6248488 111.764229,26.411713 C112.403372,27.1987685 113.45367,27.5877994 114.933284,27.5877994 C117.134349,27.5877994 119.143362,26.411713 120.988145,24.069108 L120.988145,8.34866358 L124.887926,8.34866358 L124.887926,30.2922623 L120.988145,30.2922623 L120.988145,27.5062809 Z" id="Fill-11" fill="#222222"></path>
                                    <path d="M94.8596919,30.8258833 C93.2888825,30.8258833 91.864141,30.5635315 90.5947415,30.0568154 C89.3162611,29.5414883 88.2201723,28.7997846 87.3159426,27.8318957 C86.4026319,26.855013 85.6995352,25.6611302 85.2155405,24.240871 C84.7222715,22.8118093 84.4759269,21.1837352 84.4759269,19.3476549 C84.4759269,17.5115747 84.7222715,15.8833093 85.2246214,14.4632414 C85.7269713,13.0341796 86.4300679,11.8311117 87.3435718,10.854229 C88.2474151,9.8773463 89.3435039,9.13564259 90.6130966,8.6291179 C91.891577,8.12259321 93.3072376,7.86942654 94.8596919,7.86942654 C96.0558642,7.86942654 97.1703081,8.03208086 98.2022507,8.33959321 C99.2341932,8.64710556 100.13823,9.09947593 100.914747,9.68751914 C101.690877,10.2845562 102.330214,11.0170747 102.832564,11.9034451 C103.334721,12.7808216 103.654679,13.793871 103.791473,14.9244142 L99.7272689,14.9244142 C99.6909452,14.2734142 99.5356031,13.6945562 99.2709034,13.1878401 C99.0060104,12.6815068 98.6497285,12.2653031 98.2113316,11.9306179 C97.7822089,11.5959327 97.2707781,11.3335809 96.6861201,11.1617414 C96.1109295,10.980908 95.4990287,10.8903957 94.8596919,10.8903957 C93.9282193,10.8903957 93.0788616,11.0714204 92.3025379,11.4240932 C91.5262141,11.7769574 90.8594413,12.3014698 90.2933316,12.9978216 C89.7361097,13.70355 89.297906,14.5809265 88.9872219,15.6391364 C88.6769243,16.6973463 88.5123081,17.9365809 88.5123081,19.3476549 C88.5123081,20.722371 88.6676501,21.9434265 88.9690601,22.9926426 C89.27047,24.04205 89.7088668,24.9194265 90.2658956,25.6247722 C90.8320052,26.3305006 91.4987781,26.8640068 92.2751018,27.216871 C93.0514256,27.5693525 93.9098642,27.7505685 94.8596919,27.7505685 C95.4990287,27.7505685 96.1109295,27.6600562 96.6861201,27.4972105 C97.2707781,27.325371 97.7822089,27.0811981 98.2113316,26.7375191 C98.6497285,26.402834 99.0060104,25.9866302 99.2709034,25.4801056 C99.5356031,24.982766 99.6909452,24.4037167 99.7272689,23.7433401 L103.791473,23.7433401 C103.654679,24.8922537 103.334721,25.9053031 102.832564,26.7826796 C102.330214,27.650871 101.690877,28.392766 100.914747,28.9896117 C100.13823,29.5956426 99.2341932,30.048013 98.2022507,30.3555253 C97.1703081,30.6718401 96.0558642,30.8258833 94.8596919,30.8258833" id="Fill-12" fill="#222222"></path>
                                    <path d="M141.009686,11.4633216 C139.302469,10.8808278 137.529174,11.2512969 136.126458,12.3089327 C134.72355,13.3667599 133.691221,15.1121364 133.46613,17.2790747 L133.46613,23.7056426 L133.46613,30.1325932 L131.484166,30.1325932 L129.502396,30.1325932 L129.502396,19.1608895 L129.502396,8.1891858 L131.484166,8.1891858 L133.46613,8.1891858 L133.46613,9.6498216 L133.46613,11.1106488 C134.278777,9.92595123 135.164652,9.19094506 136.12356,8.75235247 C137.082662,8.31375988 138.114798,8.17138951 139.219581,8.17138951 C139.493748,8.17138951 139.781633,8.18497593 140.080338,8.21195741 C140.379623,8.23893889 140.690114,8.28008086 141.009686,8.33404383 L141.009686,9.89858704 L141.009686,11.4633216 Z" id="Fill-13" fill="#222222"></path>
                                </g>
                            </g>
                        </g>
                    </g>
                </g>
            </g>
        </g>
    </g>
</svg>